# xmcd
#
# Track frame offsets:
#	150
#	9352
#	35246
#	46783
#	65451
#	79308
#	93400
#	123310
#	144323
#	159177
#	174322
#	206172
#
# Disc length: 3053
#
# Revision: 1
# Processed by: cddbd v1.5.1PL0 Copyright (c) Steve Scherf et al.
# Submitted via: CDex 1.51
# Normalized: r0:TDELIM( - )
#
DISCID=970beb0c
DTITLE=Various Artist - Cool Jazzin
DYEAR=2004
DGENRE=Jazz
TTITLE0=Dave Brubeck - Unsquare Dance
TTITLE1=Miles Davis - Miles
TTITLE2=George Benson - A Foggy Day
TTITLE3=Gerry Mulligan Quartet - My Funny Valentine
TTITLE4=Billie Holiday - Easy Living
TTITLE5=Tony Bennett - I Get a Kick Out of You
TTITLE6=Dexter Gordon - The Moontrane
TTITLE7=Tootes Thielemans - Don't Be That Way
TTITLE8=Sarah Vaughan - Black Doffee
TTITLE9=Charlie Parker - Now's the Time (II)
TTITLE10=Chet Baker - Autumn Leaves
TTITLE11=Ella Fitzgerald - Lemon Drop (live)
EXTD=YEAR: 2004
EXTT0=
EXTT1=
EXTT2=
EXTT3=
EXTT4=
EXTT5=
EXTT6=
EXTT7=
EXTT8=
EXTT9=
EXTT10=
EXTT11=
PLAYORDER=
